<svg width="394" height="51" viewBox="0 0 394 51" fill="none" xmlns="http://www.w3.org/2000/svg">
<rect y="0.5" width="50" height="50" rx="25" fill="#624DE7"/>
<path d="M11.6894 32.4834C8.9091 27.3254 8.93975 22.4656 11.6894 10.4599C-0.451168 23.3069 4.92756 39.3658 19.8343 44.5658V6.4834C18.1742 6.80873 17.2307 7.18976 15.5314 8.16575V35.9804C13.9054 34.8809 13.0553 34.1339 11.6894 32.4834Z" fill="white"/>
<path d="M22.2669 45.2353V5.84616C23.7716 5.45699 24.6707 5.42319 26.348 5.61001V40.0677C29.1618 40.0677 30.8997 39.3484 33.5742 38.1813V43.5919C28.9659 45.1583 25.3165 45.9492 22.2669 45.2353Z" fill="white"/>
<path d="M43.9451 31.8341C47.8516 19.9278 40.4603 8.34543 29.1618 6.03626V12.3839C32.237 12.8898 34.687 14.2419 36.6517 15.9676V41.5876C38.2382 40.6888 39.0662 39.9173 40.4603 38.1813V20.5107C42.3307 24.4107 42.6895 24.2887 43.9451 31.8341Z" fill="white"/>
<path d="M68.944 34.812C67.5747 34.812 66.3267 34.5433 65.2 34.006C64.0907 33.4513 63.2067 32.628 62.548 31.536C61.9067 30.444 61.586 29.066 61.586 27.402V16.3H65.486V27.428C65.486 28.2427 65.616 28.936 65.876 29.508C66.1533 30.08 66.552 30.5133 67.072 30.808C67.6093 31.0853 68.2507 31.224 68.996 31.224C69.7587 31.224 70.4 31.0853 70.92 30.808C71.4573 30.5133 71.8647 30.08 72.142 29.508C72.4193 28.936 72.558 28.2427 72.558 27.428V16.3H76.458V27.402C76.458 29.066 76.1113 30.444 75.418 31.536C74.742 32.628 73.832 33.4513 72.688 34.006C71.5613 34.5433 70.3133 34.812 68.944 34.812ZM78.4173 34.5V21.396H81.8233L82.1353 23.502C82.534 22.774 83.0973 22.1933 83.8253 21.76C84.5533 21.3093 85.4373 21.084 86.4773 21.084C87.5693 21.084 88.488 21.318 89.2333 21.786C89.9787 22.254 90.542 22.93 90.9233 23.814C91.322 24.6807 91.5213 25.7467 91.5213 27.012V34.5H87.6473V27.376C87.6473 26.4227 87.4393 25.686 87.0233 25.166C86.6247 24.6287 85.9833 24.36 85.0993 24.36C84.5793 24.36 84.1027 24.49 83.6693 24.75C83.2533 24.9927 82.924 25.348 82.6813 25.816C82.4387 26.284 82.3173 26.8473 82.3173 27.506V34.5H78.4173ZM93.5209 34.5V21.396H97.4209V34.5H93.5209ZM95.4709 19.888C94.7776 19.888 94.2142 19.6887 93.7809 19.29C93.3476 18.8913 93.1309 18.3887 93.1309 17.782C93.1309 17.158 93.3476 16.6467 93.7809 16.248C94.2142 15.8493 94.7776 15.65 95.4709 15.65C96.1816 15.65 96.7536 15.8493 97.1869 16.248C97.6376 16.6467 97.8629 17.158 97.8629 17.782C97.8629 18.3887 97.6376 18.8913 97.1869 19.29C96.7536 19.6887 96.1816 19.888 95.4709 19.888ZM102.99 34.5L98.2316 21.396H102.34L105.382 30.834L108.424 21.396H112.48L107.748 34.5H102.99ZM119.102 34.812C117.75 34.812 116.563 34.5347 115.54 33.98C114.517 33.408 113.711 32.6193 113.122 31.614C112.55 30.5913 112.264 29.4213 112.264 28.104C112.264 26.752 112.55 25.5473 113.122 24.49C113.694 23.4327 114.491 22.6007 115.514 21.994C116.537 21.3873 117.724 21.084 119.076 21.084C120.393 21.084 121.546 21.37 122.534 21.942C123.522 22.514 124.293 23.294 124.848 24.282C125.42 25.2527 125.706 26.3793 125.706 27.662C125.706 27.8353 125.697 28.0347 125.68 28.26C125.68 28.468 125.663 28.6847 125.628 28.91H115.046V26.648H121.728C121.693 25.92 121.425 25.3393 120.922 24.906C120.437 24.4553 119.83 24.23 119.102 24.23C118.547 24.23 118.045 24.36 117.594 24.62C117.143 24.88 116.779 25.27 116.502 25.79C116.242 26.31 116.112 26.9687 116.112 27.766V28.546C116.112 29.1527 116.225 29.69 116.45 30.158C116.693 30.626 117.031 30.99 117.464 31.25C117.915 31.51 118.443 31.64 119.05 31.64C119.622 31.64 120.09 31.5273 120.454 31.302C120.835 31.0593 121.13 30.756 121.338 30.392H125.316C125.073 31.224 124.657 31.978 124.068 32.654C123.479 33.3127 122.759 33.8413 121.91 34.24C121.061 34.6213 120.125 34.812 119.102 34.812ZM127.274 34.5V21.396H130.732L131.096 23.788C131.443 23.2333 131.85 22.7567 132.318 22.358C132.786 21.9593 133.323 21.6473 133.93 21.422C134.554 21.1967 135.221 21.084 135.932 21.084V25.218H134.632C134.112 25.218 133.635 25.2787 133.202 25.4C132.786 25.504 132.422 25.686 132.11 25.946C131.815 26.206 131.581 26.5613 131.408 27.012C131.252 27.4453 131.174 27.9913 131.174 28.65V34.5H127.274ZM142.352 34.812C141.121 34.812 140.055 34.6213 139.154 34.24C138.27 33.8413 137.568 33.304 137.048 32.628C136.545 31.952 136.259 31.1893 136.19 30.34H140.064C140.133 30.6347 140.255 30.9033 140.428 31.146C140.619 31.3713 140.87 31.5533 141.182 31.692C141.511 31.8133 141.875 31.874 142.274 31.874C142.707 31.874 143.054 31.822 143.314 31.718C143.591 31.5967 143.799 31.4407 143.938 31.25C144.077 31.0593 144.146 30.86 144.146 30.652C144.146 30.3227 144.042 30.0713 143.834 29.898C143.643 29.7247 143.357 29.586 142.976 29.482C142.595 29.3607 142.135 29.248 141.598 29.144C140.974 29.0053 140.35 28.8493 139.726 28.676C139.119 28.4853 138.573 28.2513 138.088 27.974C137.62 27.6967 137.239 27.3413 136.944 26.908C136.667 26.4573 136.528 25.9113 136.528 25.27C136.528 24.49 136.745 23.788 137.178 23.164C137.611 22.5227 138.235 22.02 139.05 21.656C139.865 21.2747 140.853 21.084 142.014 21.084C143.661 21.084 144.952 21.448 145.888 22.176C146.824 22.904 147.379 23.8833 147.552 25.114H143.912C143.808 24.7673 143.591 24.5073 143.262 24.334C142.933 24.1433 142.517 24.048 142.014 24.048C141.442 24.048 141.009 24.1433 140.714 24.334C140.419 24.5247 140.272 24.776 140.272 25.088C140.272 25.296 140.367 25.4867 140.558 25.66C140.766 25.816 141.061 25.9547 141.442 26.076C141.823 26.1973 142.291 26.3187 142.846 26.44C143.903 26.6653 144.813 26.908 145.576 27.168C146.356 27.428 146.963 27.8093 147.396 28.312C147.829 28.7973 148.037 29.508 148.02 30.444C148.037 31.2933 147.812 32.0473 147.344 32.706C146.893 33.3647 146.243 33.8847 145.394 34.266C144.545 34.63 143.531 34.812 142.352 34.812ZM154.105 34.812C153.013 34.812 152.103 34.6387 151.375 34.292C150.664 33.9453 150.136 33.4773 149.789 32.888C149.46 32.2813 149.295 31.614 149.295 30.886C149.295 30.106 149.486 29.4213 149.867 28.832C150.266 28.2253 150.881 27.7487 151.713 27.402C152.545 27.038 153.594 26.856 154.859 26.856H158.031C158.031 26.2667 157.953 25.7813 157.797 25.4C157.658 25.0187 157.424 24.7327 157.095 24.542C156.766 24.3513 156.315 24.256 155.743 24.256C155.136 24.256 154.625 24.3773 154.209 24.62C153.793 24.8627 153.533 25.244 153.429 25.764H149.685C149.772 24.828 150.075 24.0133 150.595 23.32C151.132 22.6267 151.843 22.0807 152.727 21.682C153.611 21.2833 154.625 21.084 155.769 21.084C157.017 21.084 158.1 21.292 159.019 21.708C159.938 22.1067 160.648 22.696 161.151 23.476C161.671 24.256 161.931 25.2267 161.931 26.388V34.5H158.681L158.213 32.602C158.022 32.9313 157.797 33.2347 157.537 33.512C157.277 33.772 156.974 34.006 156.627 34.214C156.28 34.4047 155.899 34.552 155.483 34.656C155.067 34.76 154.608 34.812 154.105 34.812ZM155.067 31.848C155.483 31.848 155.847 31.7787 156.159 31.64C156.471 31.5013 156.74 31.3107 156.965 31.068C157.19 30.8253 157.372 30.548 157.511 30.236C157.667 29.9067 157.78 29.5513 157.849 29.17V29.144H155.327C154.894 29.144 154.53 29.2047 154.235 29.326C153.958 29.43 153.75 29.586 153.611 29.794C153.472 30.002 153.403 30.2447 153.403 30.522C153.403 30.8167 153.472 31.068 153.611 31.276C153.767 31.4667 153.966 31.614 154.209 31.718C154.469 31.8047 154.755 31.848 155.067 31.848ZM163.872 34.5V15.78H167.772V34.5H163.872ZM244.318 34.5V19.446H239.04V16.3H253.496V19.446H248.218V34.5H244.318ZM258.684 34.812C257.332 34.812 256.145 34.5347 255.122 33.98C254.1 33.408 253.294 32.6193 252.704 31.614C252.132 30.5913 251.846 29.4213 251.846 28.104C251.846 26.752 252.132 25.5473 252.704 24.49C253.276 23.4327 254.074 22.6007 255.096 21.994C256.119 21.3873 257.306 21.084 258.658 21.084C259.976 21.084 261.128 21.37 262.116 21.942C263.104 22.514 263.876 23.294 264.43 24.282C265.002 25.2527 265.288 26.3793 265.288 27.662C265.288 27.8353 265.28 28.0347 265.262 28.26C265.262 28.468 265.245 28.6847 265.21 28.91H254.628V26.648H261.31C261.276 25.92 261.007 25.3393 260.504 24.906C260.019 24.4553 259.412 24.23 258.684 24.23C258.13 24.23 257.627 24.36 257.176 24.62C256.726 24.88 256.362 25.27 256.084 25.79C255.824 26.31 255.694 26.9687 255.694 27.766V28.546C255.694 29.1527 255.807 29.69 256.032 30.158C256.275 30.626 256.613 30.99 257.046 31.25C257.497 31.51 258.026 31.64 258.632 31.64C259.204 31.64 259.672 31.5273 260.036 31.302C260.418 31.0593 260.712 30.756 260.92 30.392H264.898C264.656 31.224 264.24 31.978 263.65 32.654C263.061 33.3127 262.342 33.8413 261.492 34.24C260.643 34.6213 259.707 34.812 258.684 34.812ZM273.33 34.812C271.978 34.812 270.782 34.5173 269.742 33.928C268.72 33.3387 267.914 32.5327 267.324 31.51C266.752 30.4873 266.466 29.3173 266.466 28C266.466 26.648 266.752 25.4607 267.324 24.438C267.914 23.398 268.72 22.5833 269.742 21.994C270.782 21.3873 271.978 21.084 273.33 21.084C275.046 21.084 276.485 21.5347 277.646 22.436C278.825 23.3373 279.57 24.594 279.882 26.206H275.748C275.592 25.6513 275.298 25.218 274.864 24.906C274.431 24.594 273.911 24.438 273.304 24.438C272.732 24.438 272.23 24.5853 271.796 24.88C271.38 25.1573 271.051 25.5647 270.808 26.102C270.566 26.622 270.444 27.2373 270.444 27.948C270.444 28.4853 270.514 28.9707 270.652 29.404C270.791 29.8373 270.982 30.21 271.224 30.522C271.484 30.834 271.788 31.0767 272.134 31.25C272.481 31.406 272.871 31.484 273.304 31.484C273.72 31.484 274.084 31.4147 274.396 31.276C274.726 31.1373 275.003 30.938 275.228 30.678C275.471 30.418 275.644 30.0973 275.748 29.716H279.882C279.57 31.276 278.825 32.5153 277.646 33.434C276.468 34.3527 275.029 34.812 273.33 34.812ZM281.603 34.5V15.78H285.503V23.268C285.919 22.6093 286.483 22.0807 287.193 21.682C287.904 21.2833 288.736 21.084 289.689 21.084C290.799 21.084 291.726 21.318 292.471 21.786C293.217 22.254 293.78 22.9387 294.161 23.84C294.543 24.724 294.733 25.7987 294.733 27.064V34.5H290.859V27.428C290.859 26.4573 290.651 25.7033 290.235 25.166C289.837 24.6287 289.195 24.36 288.311 24.36C287.791 24.36 287.315 24.49 286.881 24.75C286.448 25.01 286.11 25.3827 285.867 25.868C285.625 26.336 285.503 26.8993 285.503 27.558V34.5H281.603ZM296.68 34.5V21.396H300.086L300.398 23.502C300.797 22.774 301.36 22.1933 302.088 21.76C302.816 21.3093 303.7 21.084 304.74 21.084C305.832 21.084 306.751 21.318 307.496 21.786C308.242 22.254 308.805 22.93 309.186 23.814C309.585 24.6807 309.784 25.7467 309.784 27.012V34.5H305.91V27.376C305.91 26.4227 305.702 25.686 305.286 25.166C304.888 24.6287 304.246 24.36 303.362 24.36C302.842 24.36 302.366 24.49 301.932 24.75C301.516 24.9927 301.187 25.348 300.944 25.816C300.702 26.284 300.58 26.8473 300.58 27.506V34.5H296.68ZM318.024 34.812C316.758 34.812 315.623 34.5173 314.618 33.928C313.612 33.3387 312.815 32.5327 312.226 31.51C311.636 30.47 311.342 29.2913 311.342 27.974C311.342 26.622 311.636 25.4347 312.226 24.412C312.815 23.372 313.612 22.5573 314.618 21.968C315.64 21.3787 316.776 21.084 318.024 21.084C319.306 21.084 320.45 21.3787 321.456 21.968C322.461 22.5573 323.258 23.372 323.848 24.412C324.437 25.4347 324.732 26.6133 324.732 27.948C324.732 29.2827 324.437 30.47 323.848 31.51C323.258 32.5327 322.461 33.3387 321.456 33.928C320.45 34.5173 319.306 34.812 318.024 34.812ZM318.024 31.432C318.544 31.432 319.003 31.302 319.402 31.042C319.818 30.782 320.147 30.392 320.39 29.872C320.632 29.352 320.754 28.7107 320.754 27.948C320.754 27.1853 320.632 26.544 320.39 26.024C320.147 25.504 319.826 25.114 319.428 24.854C319.029 24.594 318.57 24.464 318.05 24.464C317.53 24.464 317.062 24.594 316.646 24.854C316.247 25.114 315.926 25.504 315.684 26.024C315.441 26.544 315.32 27.1853 315.32 27.948C315.32 28.7107 315.441 29.352 315.684 29.872C315.926 30.392 316.247 30.782 316.646 31.042C317.062 31.302 317.521 31.432 318.024 31.432ZM326.428 34.5V15.78H330.328V34.5H326.428ZM338.707 34.812C337.442 34.812 336.306 34.5173 335.301 33.928C334.296 33.3387 333.498 32.5327 332.909 31.51C332.32 30.47 332.025 29.2913 332.025 27.974C332.025 26.622 332.32 25.4347 332.909 24.412C333.498 23.372 334.296 22.5573 335.301 21.968C336.324 21.3787 337.459 21.084 338.707 21.084C339.99 21.084 341.134 21.3787 342.139 21.968C343.144 22.5573 343.942 23.372 344.531 24.412C345.12 25.4347 345.415 26.6133 345.415 27.948C345.415 29.2827 345.12 30.47 344.531 31.51C343.942 32.5327 343.144 33.3387 342.139 33.928C341.134 34.5173 339.99 34.812 338.707 34.812ZM338.707 31.432C339.227 31.432 339.686 31.302 340.085 31.042C340.501 30.782 340.83 30.392 341.073 29.872C341.316 29.352 341.437 28.7107 341.437 27.948C341.437 27.1853 341.316 26.544 341.073 26.024C340.83 25.504 340.51 25.114 340.111 24.854C339.712 24.594 339.253 24.464 338.733 24.464C338.213 24.464 337.745 24.594 337.329 24.854C336.93 25.114 336.61 25.504 336.367 26.024C336.124 26.544 336.003 27.1853 336.003 27.948C336.003 28.7107 336.124 29.352 336.367 29.872C336.61 30.392 336.93 30.782 337.329 31.042C337.745 31.302 338.204 31.432 338.707 31.432ZM351.944 40.532C350.661 40.532 349.552 40.376 348.616 40.064C347.68 39.7693 346.952 39.3187 346.432 38.712C345.929 38.1053 345.678 37.3427 345.678 36.424C345.678 35.7653 345.851 35.15 346.198 34.578C346.562 34.006 347.073 33.5033 347.732 33.07C348.39 32.6193 349.179 32.2467 350.098 31.952L351.398 33.928C350.635 34.1533 350.063 34.448 349.682 34.812C349.318 35.176 349.136 35.5833 349.136 36.034C349.136 36.3807 349.257 36.6753 349.5 36.918C349.742 37.1607 350.072 37.3427 350.488 37.464C350.921 37.5853 351.398 37.646 351.918 37.646C352.42 37.646 352.854 37.5853 353.218 37.464C353.599 37.3427 353.894 37.1607 354.102 36.918C354.327 36.6927 354.44 36.4153 354.44 36.086C354.44 35.6527 354.292 35.306 353.998 35.046C353.703 34.786 353.096 34.6213 352.178 34.552C351.328 34.4827 350.557 34.3873 349.864 34.266C349.188 34.1273 348.581 33.9627 348.044 33.772C347.524 33.5813 347.073 33.3733 346.692 33.148C346.31 32.9227 346.016 32.6973 345.808 32.472V31.874L348.668 28.728L351.346 29.56L347.888 33.07L349.084 31.094C349.257 31.198 349.439 31.302 349.63 31.406C349.82 31.4927 350.054 31.5707 350.332 31.64C350.609 31.7093 350.956 31.7787 351.372 31.848C351.788 31.9 352.325 31.9607 352.984 32.03C354.11 32.134 355.038 32.3507 355.766 32.68C356.511 32.992 357.057 33.4253 357.404 33.98C357.768 34.5347 357.95 35.2107 357.95 36.008C357.95 36.788 357.733 37.5247 357.3 38.218C356.866 38.9113 356.208 39.466 355.324 39.882C354.44 40.3153 353.313 40.532 351.944 40.532ZM351.97 30.704C350.878 30.704 349.933 30.4873 349.136 30.054C348.338 29.6207 347.723 29.0487 347.29 28.338C346.856 27.61 346.64 26.7953 346.64 25.894C346.64 25.01 346.856 24.2127 347.29 23.502C347.723 22.774 348.338 22.1933 349.136 21.76C349.933 21.3093 350.878 21.084 351.97 21.084C353.079 21.084 354.032 21.3093 354.83 21.76C355.627 22.1933 356.234 22.774 356.65 23.502C357.066 24.2127 357.274 25.01 357.274 25.894C357.274 26.7953 357.066 27.61 356.65 28.338C356.234 29.0487 355.627 29.6207 354.83 30.054C354.032 30.4873 353.079 30.704 351.97 30.704ZM351.97 27.766C352.559 27.766 353.044 27.61 353.426 27.298C353.807 26.986 353.998 26.5267 353.998 25.92C353.998 25.3133 353.807 24.854 353.426 24.542C353.044 24.23 352.559 24.074 351.97 24.074C351.38 24.074 350.886 24.23 350.488 24.542C350.106 24.854 349.916 25.3133 349.916 25.92C349.916 26.5267 350.106 26.986 350.488 27.298C350.886 27.61 351.38 27.766 351.97 27.766ZM354.154 24.074L353.582 21.396H359.016V23.606L354.154 24.074ZM360.717 34.5V21.396H364.617V34.5H360.717ZM362.667 19.888C361.973 19.888 361.41 19.6887 360.977 19.29C360.543 18.8913 360.327 18.3887 360.327 17.782C360.327 17.158 360.543 16.6467 360.977 16.248C361.41 15.8493 361.973 15.65 362.667 15.65C363.377 15.65 363.949 15.8493 364.383 16.248C364.833 16.6467 365.059 17.158 365.059 17.782C365.059 18.3887 364.833 18.8913 364.383 19.29C363.949 19.6887 363.377 19.888 362.667 19.888ZM373.201 34.812C371.849 34.812 370.662 34.5347 369.639 33.98C368.617 33.408 367.811 32.6193 367.221 31.614C366.649 30.5913 366.363 29.4213 366.363 28.104C366.363 26.752 366.649 25.5473 367.221 24.49C367.793 23.4327 368.591 22.6007 369.613 21.994C370.636 21.3873 371.823 21.084 373.175 21.084C374.493 21.084 375.645 21.37 376.633 21.942C377.621 22.514 378.393 23.294 378.947 24.282C379.519 25.2527 379.805 26.3793 379.805 27.662C379.805 27.8353 379.797 28.0347 379.779 28.26C379.779 28.468 379.762 28.6847 379.727 28.91H369.145V26.648H375.827C375.793 25.92 375.524 25.3393 375.021 24.906C374.536 24.4553 373.929 24.23 373.201 24.23C372.647 24.23 372.144 24.36 371.693 24.62C371.243 24.88 370.879 25.27 370.601 25.79C370.341 26.31 370.211 26.9687 370.211 27.766V28.546C370.211 29.1527 370.324 29.69 370.549 30.158C370.792 30.626 371.13 30.99 371.563 31.25C372.014 31.51 372.543 31.64 373.149 31.64C373.721 31.64 374.189 31.5273 374.553 31.302C374.935 31.0593 375.229 30.756 375.437 30.392H379.415C379.173 31.224 378.757 31.978 378.167 32.654C377.578 33.3127 376.859 33.8413 376.009 34.24C375.16 34.6213 374.224 34.812 373.201 34.812ZM386.833 34.812C385.603 34.812 384.537 34.6213 383.635 34.24C382.751 33.8413 382.049 33.304 381.529 32.628C381.027 31.952 380.741 31.1893 380.671 30.34H384.545C384.615 30.6347 384.736 30.9033 384.909 31.146C385.1 31.3713 385.351 31.5533 385.663 31.692C385.993 31.8133 386.357 31.874 386.755 31.874C387.189 31.874 387.535 31.822 387.795 31.718C388.073 31.5967 388.281 31.4407 388.419 31.25C388.558 31.0593 388.627 30.86 388.627 30.652C388.627 30.3227 388.523 30.0713 388.315 29.898C388.125 29.7247 387.839 29.586 387.457 29.482C387.076 29.3607 386.617 29.248 386.079 29.144C385.455 29.0053 384.831 28.8493 384.207 28.676C383.601 28.4853 383.055 28.2513 382.569 27.974C382.101 27.6967 381.72 27.3413 381.425 26.908C381.148 26.4573 381.009 25.9113 381.009 25.27C381.009 24.49 381.226 23.788 381.659 23.164C382.093 22.5227 382.717 22.02 383.531 21.656C384.346 21.2747 385.334 21.084 386.495 21.084C388.142 21.084 389.433 21.448 390.369 22.176C391.305 22.904 391.86 23.8833 392.033 25.114H388.393C388.289 24.7673 388.073 24.5073 387.743 24.334C387.414 24.1433 386.998 24.048 386.495 24.048C385.923 24.048 385.49 24.1433 385.195 24.334C384.901 24.5247 384.753 24.776 384.753 25.088C384.753 25.296 384.849 25.4867 385.039 25.66C385.247 25.816 385.542 25.9547 385.923 26.076C386.305 26.1973 386.773 26.3187 387.327 26.44C388.385 26.6653 389.295 26.908 390.057 27.168C390.837 27.428 391.444 27.8093 391.877 28.312C392.311 28.7973 392.519 29.508 392.501 30.444C392.519 31.2933 392.293 32.0473 391.825 32.706C391.375 33.3647 390.725 33.8847 389.875 34.266C389.026 34.63 388.012 34.812 386.833 34.812Z" fill="black"/>
<path d="M174.476 34.5V16.3H178.376V31.484H186.228V34.5H174.476ZM187.954 34.5V21.396H191.854V34.5H187.954ZM189.904 19.888C189.21 19.888 188.647 19.6887 188.214 19.29C187.78 18.8913 187.564 18.3887 187.564 17.782C187.564 17.158 187.78 16.6467 188.214 16.248C188.647 15.8493 189.21 15.65 189.904 15.65C190.614 15.65 191.186 15.8493 191.62 16.248C192.07 16.6467 192.296 17.158 192.296 17.782C192.296 18.3887 192.07 18.8913 191.62 19.29C191.186 19.6887 190.614 19.888 189.904 19.888ZM193.99 34.5V21.396H197.396L197.708 23.502C198.107 22.774 198.67 22.1933 199.398 21.76C200.126 21.3093 201.01 21.084 202.05 21.084C203.142 21.084 204.061 21.318 204.806 21.786C205.552 22.254 206.115 22.93 206.496 23.814C206.895 24.6807 207.094 25.7467 207.094 27.012V34.5H203.22V27.376C203.22 26.4227 203.012 25.686 202.596 25.166C202.198 24.6287 201.556 24.36 200.672 24.36C200.152 24.36 199.676 24.49 199.242 24.75C198.826 24.9927 198.497 25.348 198.254 25.816C198.012 26.284 197.89 26.8473 197.89 27.506V34.5H193.99ZM217.778 34.5L212.37 27.324L217.18 21.396H221.782L215.308 28.988V25.868L222.614 34.5H217.778ZM209.042 34.5V15.78H212.942V34.5H209.042ZM228.208 34.812C226.977 34.812 225.911 34.6213 225.01 34.24C224.126 33.8413 223.424 33.304 222.904 32.628C222.401 31.952 222.115 31.1893 222.046 30.34H225.92C225.989 30.6347 226.11 30.9033 226.284 31.146C226.474 31.3713 226.726 31.5533 227.038 31.692C227.367 31.8133 227.731 31.874 228.13 31.874C228.563 31.874 228.91 31.822 229.17 31.718C229.447 31.5967 229.655 31.4407 229.794 31.25C229.932 31.0593 230.002 30.86 230.002 30.652C230.002 30.3227 229.898 30.0713 229.69 29.898C229.499 29.7247 229.213 29.586 228.832 29.482C228.45 29.3607 227.991 29.248 227.454 29.144C226.83 29.0053 226.206 28.8493 225.582 28.676C224.975 28.4853 224.429 28.2513 223.944 27.974C223.476 27.6967 223.094 27.3413 222.8 26.908C222.522 26.4573 222.384 25.9113 222.384 25.27C222.384 24.49 222.6 23.788 223.034 23.164C223.467 22.5227 224.091 22.02 224.906 21.656C225.72 21.2747 226.708 21.084 227.87 21.084C229.516 21.084 230.808 21.448 231.744 22.176C232.68 22.904 233.234 23.8833 233.408 25.114H229.768C229.664 24.7673 229.447 24.5073 229.118 24.334C228.788 24.1433 228.372 24.048 227.87 24.048C227.298 24.048 226.864 24.1433 226.57 24.334C226.275 24.5247 226.128 24.776 226.128 25.088C226.128 25.296 226.223 25.4867 226.414 25.66C226.622 25.816 226.916 25.9547 227.298 26.076C227.679 26.1973 228.147 26.3187 228.702 26.44C229.759 26.6653 230.669 26.908 231.432 27.168C232.212 27.428 232.818 27.8093 233.252 28.312C233.685 28.7973 233.893 29.508 233.876 30.444C233.893 31.2933 233.668 32.0473 233.2 32.706C232.749 33.3647 232.099 33.8847 231.25 34.266C230.4 34.63 229.386 34.812 228.208 34.812Z" fill="#624DE7"/>
</svg>
